<?xml version="1.0" encoding="utf-8"?>
<!-- Generator: Adobe Illustrator 26.0.3, SVG Export Plug-In . SVG Version: 6.00 Build 0)  -->
<svg version="1.0" id="katman_1" xmlns="http://www.w3.org/2000/svg" xmlns:xlink="http://www.w3.org/1999/xlink" x="0px" y="0px"
	 viewBox="0 0 600 450" style="enable-background:new 0 0 600 450;" xml:space="preserve">
<style type="text/css">
	.st0{fill:#EBF0FFFF;}
</style>
<path class="st0" d="M118.4,246.5l12.6,3l-3.9,9.9c-4.2-1.4-8-2.7-11.8-3.9c-5.8-1.8-11.7-3.5-17.5-5.1
	c-10.5-2.9-17.1-9.6-18.9-20.2c-2-11.9,0-23,10.5-30.5c8.9-6.3,18.7-6.7,28.3-1.6c15.2,8.1,17.6,34.2,4.4,45.4
	C121.1,244.3,120.1,245.1,118.4,246.5z M90.9,222.8c1.3,4.2,1.9,8.5,3.8,12.1c0.9,1.8,2.3,3.3,4.1,4.4c1.7,1.1,3.7,1.6,5.8,1.6
	c2,0,4-0.6,5.8-1.7s3.1-2.6,4-4.4c2.1-3.6,3.2-7.7,3.2-11.8s-1.1-8.2-3.2-11.8c-4.3-7.9-14.9-8-19.3-0.3
	C93,214.3,92.3,218.6,90.9,222.8L90.9,222.8z"/>
<path class="st0" d="M484.4,211.2c0,12.5,0.5,24.2-0.1,35.9c-0.9,17.9-18.9,26.1-36.4,16.6c0.7-2.8,1.4-5.8,2.2-8.7
	c17.5,3.5,21.3,1.9,21.5-7.5c-4.1,0.8-8.5,2.9-12.4,2.1c-4.3-1-8.3-3.4-11.1-6.8c-6.2-7.8-4.4-21.2,2.7-27.9c6.3-6,14.6-6.3,22-0.6
	c0.5-1.1,1-2.1,1.4-3.2L484.4,211.2z M471.7,229.8c0-6.8-2-9.9-6.5-9.9c-4.5,0-7.5,4-7.7,10c-0.1,6.3,2.9,10.7,7.5,10.7
	C469.5,240.7,471.7,237.4,471.7,229.8z"/>
<path class="st0" d="M350.9,219.4l18.8,30.8h-14.9c-4.2-7.3-8.4-14.7-12.8-22.3c-8.2,6-2.5,14.9-5.1,22.3h-11.8v-53.5h12.1v21.2
	l1.1,0.4l14.8-21.7h15.6L350.9,219.4z"/>
<path class="st0" d="M400.2,211.1h10.3c0.3,1.2,0.7,2.4,1,3.7c2.3-1.4,4.4-3,6.8-3.9c8.5-3.1,17.5,1.7,18.5,10.9
	c1,9.2,0.2,18.8,0.2,28.5h-12.5v-17.1c0-2.1,0-4.2-0.1-6.3c-0.2-3.6-1.7-6.3-5.6-6.3s-6.1,2.5-6.3,6.4c-0.2,5.8-0.1,11.6-0.1,17.3v6
	h-12.4L400.2,211.1z"/>
<path class="st0" d="M165.3,249.7l-1.4-3.9c-0.8,0.6-1.3,0.9-1.8,1.3c-2.1,1.9-4.7,3.2-7.4,3.7c-2.8,0.5-5.6,0.1-8.2-1
	c-5.5-2.1-7.9-6.9-8.1-12.4c-0.3-8.7-0.1-17.4-0.1-26.5h12.6c0,5.4,0,10.7,0,16.1c0,2.3,0.1,4.6,0.2,6.8c0.3,3.6,1.5,6.9,5.8,6.6
	c4.1-0.2,6-2.9,6-7.1c-0.1-5.9-0.1-11.9,0-17.9c0-1.4,0.1-2.8,0.2-4.6h12.4v38.9H165.3z"/>
<path class="st0" d="M249.8,249.7c-0.9,0.2-1.8,0.3-2.8,0.3c-10.3,0-20.6,0-32.6,0c1.3-4,1.7-7.7,3.6-10.3c4.6-6.4,9.8-12.2,15.3-19
	h-16.4v-9.9h31.9c0.7,1.9,0.8,3.9,0.4,5.8c-0.4,1.9-1.4,3.7-2.7,5.2c-4.9,5.6-9.5,11.6-14.6,18h18V249.7z"/>
<path class="st0" d="M491.3,248l2.1-8.3c5.6,0.9,10.8,5,16.6-0.3c-1.1-1.2-2.3-2.3-3.6-3.3c-1.4-0.7-2.9-1.2-4.4-1.7
	c-7.1-2.9-10.3-7.2-9.6-12.7c0.8-6.1,6-11,13.2-11.4c4.6-0.2,9.2,0.6,14.5,1.1c-0.9,3.9-1.6,6.6-2.2,9.3c-4.7,0-9.5-4.4-14.2,2
	c3,1.4,5.7,2.2,7.8,3.7c3.3,2.3,7.3,4.6,9.2,7.9c3.2,5.6-0.3,12.4-6.9,15.3C507.5,252.3,498.2,251.8,491.3,248z"/>
<path class="st0" d="M194.1,209.4h9.7c1.4,6-0.6,10.9-3.9,15.3c-1.8,2.1-3.5,4.4-5,6.8c-2.6,4.7-0.3,8.5,5.1,8.3
	c2.9-0.1,5.8-1.1,9.2-1.9l3,8.8c-6.9,5.7-20.4,6.3-27.2,1.4c-2.3-1.6-4-4-4.9-6.7c-0.9-2.7-0.9-5.6-0.1-8.3c1.1-2.8,2.4-5.4,4.1-7.8
	C187.2,220.4,190.4,215.4,194.1,209.4z"/>
<path class="st0" d="M274.6,245.5c-8.7,0-14.9-6.2-14.8-14.9c0.1-8.9,6.4-15.1,15.4-15c8.5,0.1,14.4,6,14.5,14.6
	C289.8,239.2,283.5,245.5,274.6,245.5z M269.3,230.5c0.5,3.8,0.8,8,5.6,8c4.5,0,5.1-4.2,5.2-7.7c0-3.5-0.3-8.1-5.2-8.2
	C270,222.5,269.8,226.9,269.3,230.5L269.3,230.5z"/>
<path class="st0" d="M391,250.3h-12.1v-39.1H391V250.3z"/>
<path class="st0" d="M293.1,217.4c0.9-1.7,2.3-3.4,2.6-5.2c1-6.8,9.6-11.5,16.3-7.9c-0.1,1.7-0.2,3.7-0.3,5.9l-5.7,0.9
	c-0.5,1.4-0.9,2.8-1.5,4.7l5.6,1.1v6.2l-5.1,0.7v20.9h-9.4v-20.3l-3.6-1.8c-0.1-1.6-0.2-3.3-0.3-5L293.1,217.4z"/>
<path class="st0" d="M378.9,206.8c-2.2-3.4-4.2-6.9-6.5-10.2c-0.9-1.2-2-2.3-3.3-3c-4-2.3-4-3.6,1.1-6.8l3.7,6.9l9.2-1.7
	c-2.4-4-5.3-7.5-0.7-10.2c1.5-0.9,5.4-0.4,5.9,0.5c1.1,2.3,0.8,5.3,1.1,8l-1.8,1.5l9.5,2.1c0.7-2.4,0.8-4.2,1.7-5.1
	c0.9-0.9,2.6-0.6,4-0.9c0.2,1.5,0.9,4.3,0.6,4.4c-7,2.3-7.9,9.8-12.7,14.5L378.9,206.8z"/>
<path class="st0" d="M198.3,205.5c-1.1,0-2.3-0.2-3.3-0.6c-1.1-0.4-2-1.1-2.8-1.9c-0.8-0.8-1.4-1.8-1.8-2.8
	c-0.4-1.1-0.6-2.2-0.5-3.3c0-1.1,0.3-2.2,0.7-3.2c0.4-1,1.1-1.9,1.9-2.7s1.7-1.4,2.7-1.8c1-0.4,2.1-0.6,3.2-0.6
	c1.1,0,2.2,0.3,3.2,0.7s1.9,1.1,2.7,1.9c0.8,0.8,1.4,1.7,1.8,2.7c0.4,1,0.6,2.1,0.6,3.2c0,1.1-0.2,2.2-0.6,3.2c-0.4,1-1,1.9-1.8,2.7
	c-0.8,0.8-1.7,1.4-2.7,1.8C200.5,205.4,199.4,205.6,198.3,205.5z"/>
</svg>
